<svg width="92" height="85" viewBox="0 0 92 85" fill="none" xmlns="http://www.w3.org/2000/svg">
<path d="M90.52 78.96C91 80.16 90.92 81.36 90.28 82.56C89.64 83.68 88.68 84.24 87.4 84.24H60.28C59.32 84.24 58.48 83.88 57.76 83.16C57.12 82.44 56.8 81.56 56.8 80.52V71.88L38.68 30.36L37.12 26.76C36.88 26.2 36.44 25.92 35.8 25.92C35.24 25.84 34.76 26.12 34.36 26.76L32.68 30.24L28.12 39.48C26.92 41.96 26.88 44.52 28 47.16L41.92 78.96C42.4 80.16 42.32 81.36 41.68 82.56C41.04 83.68 40.08 84.24 38.8 84.24H11.68C7.92 84.24 5.04 82.48 3.04 78.96C1.04 75.6 0.8 72.04 2.32 68.28V67.92L4.84 62.76L27.52 16.44L28.48 14.28L29.44 12C29.92 10.88 29.92 9.76 29.44 8.64L28 5.63999C27.36 4.43999 27.36 3.2 28 1.92C28.64 0.639996 29.6 -5.72205e-06 30.88 -5.72205e-06H60.4C61.68 -5.72205e-06 62.64 0.639996 63.28 1.92C63.92 3.2 63.92 4.43999 63.28 5.63999L61.84 8.64C61.36 9.76 61.36 10.88 61.84 12L62.8 14.28L90.4 78.6L90.52 78.96Z" fill="#333E75"/>
</svg>
