<svg width="199" height="147" viewBox="0 0 199 147" fill="none" xmlns="http://www.w3.org/2000/svg">
<path d="M106.826 117.693C110.366 115.809 113.073 113.197 114.947 109.856C116.822 106.515 117.782 102.605 117.828 98.1252C117.879 93.1655 116.804 88.7542 114.604 84.8913C112.404 81.0285 109.235 77.9957 105.097 75.793C100.96 73.5903 96.1709 72.461 90.7312 72.405C85.1315 72.3474 80.2407 73.3771 76.0587 75.4942C71.8758 77.6913 68.6443 80.7382 66.3641 84.6349C64.0839 88.5317 62.917 93.0799 62.8635 98.2796C62.7976 104.679 64.4236 109.936 67.7415 114.051C71.1393 118.166 75.8715 120.895 81.938 122.237L82.2343 93.4387L95.0737 93.5708L94.6069 138.928L79.9677 138.778C74.1395 137.598 68.7645 135.142 63.8426 131.411C58.9207 127.681 54.9699 122.88 51.9902 117.009C49.0896 111.219 47.6764 104.724 47.7505 97.524C47.8336 89.4445 49.7088 82.1434 53.3762 75.6208C57.1227 69.179 62.2551 64.1115 68.7734 60.4184C75.2909 56.8053 82.6695 55.0411 90.9091 55.1259C99.1486 55.2107 106.489 57.1264 112.931 60.8728C119.452 64.7002 124.479 69.8722 128.012 76.3889C131.625 82.9864 133.39 90.2849 133.307 98.2845C133.21 107.724 130.806 115.9 126.094 122.812C121.463 129.724 114.974 134.458 106.627 137.012L106.826 117.693Z" fill="#FDFDFD"/>
<path d="M126.62 51.4949L106.373 48.1233L114.054 38.5932L134.075 42.2451L141.804 60.9578L134.123 70.4879L126.62 51.4949Z" fill="#FDFDFD"/>
</svg>
