<svg width="1556" height="1967" viewBox="0 0 1556 1967" fill="none" xmlns="http://www.w3.org/2000/svg">
<g clip-path="url(#clip0_9_3044)" filter="url(#filter0_d_9_3044)">
<g clip-path="url(#clip1_9_3044)" filter="url(#filter1_f_9_3044)">
<path d="M543.487 1614C627.244 1652.53 658.608 1718.93 637.578 1813.18C616.547 1907.43 568.857 1978.41 494.506 2026.14C420.156 2073.86 338.474 2143.24 249.461 2234.27C160.448 2325.31 53.9799 2351.75 -69.9439 2313.59C-193.868 2275.44 -293.057 2193.11 -367.51 2066.6C-441.964 1940.1 -442.104 1810.97 -367.93 1679.22C-293.756 1547.46 -215.655 1433.79 -133.627 1338.2C-51.5987 1242.6 53.0988 1162.6 180.466 1098.19C307.833 1033.78 379.238 1094.01 394.683 1278.89C410.128 1463.77 459.729 1575.47 543.487 1614Z" fill="url(#paint0_linear_9_3044)"/>
<path d="M870.476 1100.12C792.066 1051.41 766.665 982.412 794.273 893.114C821.88 803.816 873.608 740.766 949.455 703.964C1025.3 667.162 1109.92 610.174 1203.31 532.998C1296.7 455.823 1402.11 444.058 1519.56 497.702C1637.01 551.346 1727.07 644.879 1789.74 778.3C1852.41 911.721 1842.7 1037.89 1760.62 1156.81C1678.54 1275.72 1594.03 1376.46 1507.08 1459.01C1420.13 1541.56 1312.35 1605.89 1183.74 1651.99C1055.13 1698.09 990.368 1629.81 989.458 1447.16C988.547 1264.51 948.886 1148.83 870.476 1100.12Z" fill="url(#paint1_linear_9_3044)"/>
</g>
</g>
<defs>
<filter id="filter0_d_9_3044" x="0" y="0" width="1560" height="1967" filterUnits="userSpaceOnUse" color-interpolation-filters="sRGB">
<feFlood flood-opacity="0" result="BackgroundImageFix"/>
<feColorMatrix in="SourceAlpha" type="matrix" values="0 0 0 0 0 0 0 0 0 0 0 0 0 0 0 0 0 0 127 0" result="hardAlpha"/>
<feOffset dy="4"/>
<feGaussianBlur stdDeviation="2"/>
<feComposite in2="hardAlpha" operator="out"/>
<feColorMatrix type="matrix" values="0 0 0 0 0 0 0 0 0 0 0 0 0 0 0 0 0 0 0.25 0"/>
<feBlend mode="normal" in2="BackgroundImageFix" result="effect1_dropShadow_9_3044"/>
<feBlend mode="normal" in="SourceGraphic" in2="effect1_dropShadow_9_3044" result="shape"/>
</filter>
<filter id="filter1_f_9_3044" x="-514" y="435" width="2477" height="2089" filterUnits="userSpaceOnUse" color-interpolation-filters="sRGB">
<feFlood flood-opacity="0" result="BackgroundImageFix"/>
<feBlend mode="normal" in="SourceGraphic" in2="BackgroundImageFix" result="shape"/>
<feGaussianBlur stdDeviation="250" result="effect1_foregroundBlur_9_3044"/>
</filter>
<linearGradient id="paint0_linear_9_3044" x1="15.3126" y1="2005.17" x2="306.731" y2="1117.04" gradientUnits="userSpaceOnUse">
<stop stop-color="#9322F1" stop-opacity="0.59"/>
<stop offset="0.514572" stop-color="#B938FB" stop-opacity="0.488"/>
<stop offset="0.855" stop-color="#2EAFF3" stop-opacity="0.48"/>
</linearGradient>
<linearGradient id="paint1_linear_9_3044" x1="1413.26" y1="787.743" x2="1025.16" y2="1599.01" gradientUnits="userSpaceOnUse">
<stop stop-color="#9322F1" stop-opacity="0.59"/>
<stop offset="0.514572" stop-color="#B938FB" stop-opacity="0.488"/>
<stop offset="0.855" stop-color="#2EAFF3" stop-opacity="0.48"/>
</linearGradient>
<clipPath id="clip0_9_3044">
<rect width="1552" height="1959" fill="white" transform="translate(4)"/>
</clipPath>
<clipPath id="clip1_9_3044">
<rect width="1477" height="1089" fill="white" transform="translate(-14 935)"/>
</clipPath>
</defs>
</svg>
