<svg width="1249" height="1033" viewBox="0 0 1249 1033" fill="none" xmlns="http://www.w3.org/2000/svg">
<path d="M1050.01 747.923C1088.66 843.566 1066.49 918.956 983.495 974.092C900.497 1029.23 812.951 1045.54 720.858 1023.04C628.765 1000.53 515.638 988.72 381.477 987.595C247.316 986.47 144.99 922.332 74.499 795.182C4.00774 668.032 -15.889 526.816 14.8088 371.536C45.5066 216.255 136.463 117.798 287.678 76.1647C438.893 34.5315 580.444 9.77659 712.331 1.90003C844.218 -5.97652 982.926 15.9653 1128.46 67.7256C1273.99 119.486 1287.63 221.881 1169.39 374.911C1051.14 527.942 1011.35 652.279 1050.01 747.923Z" fill="url(#paint0_linear_8_3043)"/>
<defs>
<linearGradient id="paint0_linear_8_3043" x1="359.014" y1="627.771" x2="1210.37" y2="174.438" gradientUnits="userSpaceOnUse">
<stop stop-color="#9322F1" stop-opacity="0.59"/>
<stop offset="0.514572" stop-color="#B938FB" stop-opacity="0.488"/>
<stop offset="0.855" stop-color="#2EAFF3" stop-opacity="0.48"/>
</linearGradient>
</defs>
</svg>
